<svg version="1" xmlns="http://www.w3.org/2000/svg" width="933.333" height="933.333" viewBox="0 0 700.000000 700.000000"><path d="M44 21.5V43H0v657h700V43h-44V0H44v21.5zM656 350v306H44V44h612v306z"/><path d="M87 109.5V132l22.3-.2 22.2-.3.3-22.3.2-22.2H87v22.5zM568.2 109.2l.3 22.3 22.3.3 22.2.2V87h-45l.2 22.2zM218 153v22h-43v132l43.8-.2 43.7-.3.3-65.8.2-65.7h130v131h-43v44h-44v88h88v-88h88V175h-44v-44H218v22zM306 525v44h88v-88h-88v44zM87 590.5V613h45l-.2-22.3-.3-22.2-22.2-.3L87 568v22.5zM568.7 568.7c-.4.3-.7 10.5-.7 22.5V613h45v-45h-21.8c-12 0-22.2.3-22.5.7z"/></svg>
